<?xml version="1.0" encoding="utf-8"?>
<!-- Generator: Adobe Illustrator 16.0.0, SVG Export Plug-In . SVG Version: 6.00 Build 0)  -->
<!DOCTYPE svg PUBLIC "-//W3C//DTD SVG 1.1//EN" "http://www.w3.org/Graphics/SVG/1.1/DTD/svg11.dtd">
<svg version="1.1" id="Layer_1" xmlns="http://www.w3.org/2000/svg" xmlns:xlink="http://www.w3.org/1999/xlink" x="0px" y="0px"
	 width="56px" height="58px" viewBox="0 0 56 58" enable-background="new 0 0 56 58" xml:space="preserve">
<ellipse fill="#FFC413" cx="27.997" cy="29.052" rx="19.824" ry="20.127"/>
<path fill="#000540" d="M24.371,29.119V41.82c0,0.088,0.037,0.172,0.103,0.232c0.065,0.063,0.154,0.096,0.247,0.096h5.014
	c0.092,0,0.182-0.033,0.246-0.096c0.067-0.061,0.103-0.145,0.103-0.232v-12.91h3.649c0.089,0.002,0.174-0.03,0.238-0.085
	c0.064-0.055,0.104-0.13,0.112-0.211l0.35-3.894c0.003-0.044-0.003-0.091-0.018-0.133c-0.018-0.043-0.043-0.083-0.075-0.117
	c-0.033-0.032-0.073-0.059-0.116-0.076c-0.045-0.018-0.093-0.027-0.141-0.027h-4v-2.762c0-0.311,0.132-0.608,0.364-0.83
	c0.234-0.218,0.55-0.343,0.879-0.343h2.791c0.093,0,0.181-0.033,0.248-0.095c0.064-0.062,0.102-0.145,0.102-0.233v-3.886
	c0-0.043-0.007-0.088-0.023-0.128c-0.018-0.041-0.045-0.078-0.074-0.109c-0.034-0.032-0.072-0.057-0.115-0.073
	s-0.089-0.026-0.136-0.026h-4.714c-1.332,0-2.61,0.499-3.552,1.387c-0.941,0.887-1.47,2.093-1.47,3.35v3.749h-2.493
	c-0.046-0.001-0.093,0.007-0.137,0.021c-0.042,0.018-0.083,0.041-0.116,0.072c-0.033,0.03-0.06,0.067-0.078,0.107
	c-0.019,0.041-0.027,0.084-0.027,0.129v3.885c0,0.044,0.009,0.088,0.027,0.128c0.019,0.04,0.045,0.076,0.078,0.107
	s0.073,0.055,0.116,0.072c0.044,0.015,0.09,0.023,0.137,0.022h2.485v0.208H24.371z"/>
</svg>
