<?xml version="1.0" encoding="utf-8"?>
<!-- Generator: Adobe Illustrator 16.0.0, SVG Export Plug-In . SVG Version: 6.00 Build 0)  -->
<!DOCTYPE svg PUBLIC "-//W3C//DTD SVG 1.1//EN" "http://www.w3.org/Graphics/SVG/1.1/DTD/svg11.dtd">
<svg version="1.1" id="Layer_1" xmlns="http://www.w3.org/2000/svg" xmlns:xlink="http://www.w3.org/1999/xlink" x="0px" y="0px"
	 width="56px" height="58px" viewBox="0 0 56 58" enable-background="new 0 0 56 58" xml:space="preserve">
<ellipse fill="#FFC413" cx="27.994" cy="29.051" rx="19.145" ry="19.436"/>
<path fill="#333033" d="M33.906,21.15c-0.262,0-0.521,0.079-0.737,0.228c-0.217,0.148-0.388,0.359-0.487,0.604
	c-0.101,0.247-0.126,0.518-0.075,0.779c0.053,0.261,0.18,0.501,0.364,0.689c0.187,0.187,0.424,0.315,0.681,0.366
	c0.259,0.051,0.526,0.023,0.768-0.08c0.24-0.103,0.449-0.276,0.593-0.498c0.145-0.223,0.221-0.483,0.22-0.75
	c-0.002-0.355-0.142-0.697-0.391-0.947C34.593,21.291,34.257,21.15,33.906,21.15z M28.039,22.873c-1.099,0-2.175,0.331-3.089,0.951
	s-1.627,1.502-2.048,2.534c-0.42,1.032-0.53,2.167-0.316,3.262c0.215,1.096,0.745,2.102,1.523,2.891
	c0.777,0.789,1.768,1.327,2.847,1.545c1.078,0.217,2.197,0.107,3.212-0.321c1.014-0.428,1.884-1.151,2.494-2.078
	c0.61-0.928,0.937-2.021,0.937-3.137c-0.001-1.496-0.587-2.931-1.63-3.989C30.926,23.469,29.513,22.874,28.039,22.873z
	 M28.039,32.127c-0.705,0-1.394-0.211-1.98-0.609c-0.586-0.397-1.042-0.963-1.312-1.624c-0.27-0.661-0.339-1.388-0.202-2.091
	c0.137-0.702,0.477-1.346,0.977-1.852c0.498-0.505,1.134-0.849,1.825-0.988c0.692-0.139,1.409-0.066,2.058,0.208
	c0.651,0.275,1.208,0.74,1.598,1.335c0.392,0.596,0.599,1.295,0.598,2.011c-0.001,0.957-0.379,1.875-1.045,2.553
	C29.887,31.747,28.981,32.127,28.039,32.127z M39.26,23.836c0-0.91-0.175-1.81-0.517-2.649c-0.342-0.839-0.845-1.601-1.48-2.242
	c-0.635-0.641-1.388-1.148-2.217-1.492c-0.827-0.344-1.713-0.518-2.609-0.513h-8.928c-1.798,0-3.522,0.725-4.794,2.016
	c-1.271,1.291-1.985,3.042-1.985,4.867v9.064c-0.003,0.906,0.169,1.805,0.509,2.642c0.338,0.84,0.838,1.601,1.467,2.242
	c0.63,0.642,1.378,1.151,2.203,1.499c0.824,0.346,1.708,0.526,2.601,0.526h8.927c0.896,0.002,1.781-0.174,2.607-0.52
	c0.828-0.348,1.58-0.856,2.211-1.497c0.632-0.642,1.133-1.404,1.474-2.243c0.341-0.841,0.514-1.741,0.513-2.649L39.26,23.836z
	 M37.117,32.886c0.004,0.626-0.116,1.245-0.351,1.824c-0.234,0.577-0.579,1.102-1.013,1.544c-0.437,0.442-0.954,0.792-1.522,1.028
	c-0.568,0.238-1.18,0.36-1.796,0.357h-8.927c-0.613,0-1.221-0.123-1.788-0.363s-1.082-0.589-1.514-1.031s-0.774-0.965-1.007-1.541
	c-0.232-0.578-0.35-1.195-0.347-1.816v-9.065c0-1.253,0.49-2.455,1.363-3.341c0.873-0.887,2.058-1.384,3.292-1.384h8.928
	c1.235,0,2.419,0.498,3.293,1.384c0.872,0.886,1.362,2.088,1.362,3.341L37.117,32.886z"/>
</svg>
