<?xml version="1.0" encoding="utf-8"?>
<!-- Generator: Adobe Illustrator 16.0.0, SVG Export Plug-In . SVG Version: 6.00 Build 0)  -->
<!DOCTYPE svg PUBLIC "-//W3C//DTD SVG 1.1//EN" "http://www.w3.org/Graphics/SVG/1.1/DTD/svg11.dtd">
<svg version="1.1" id="Layer_1" xmlns="http://www.w3.org/2000/svg" xmlns:xlink="http://www.w3.org/1999/xlink" x="0px" y="0px"
	 width="56px" height="58px" viewBox="0 0 56 58" enable-background="new 0 0 56 58" xml:space="preserve">
<ellipse fill="#FFC413" cx="27.994" cy="29.052" rx="20.476" ry="20.788"/>
<path fill="#000540" d="M39.288,23.215c-0.73,0.311-1.502,0.527-2.29,0.643c0.364-0.063,0.913-0.698,1.128-0.977
	c0.344-0.414,0.603-0.887,0.764-1.396c0-0.041,0-0.09,0-0.119c-0.019-0.009-0.04-0.013-0.063-0.013
	c-0.019,0-0.039,0.004-0.061,0.013c-0.858,0.454-1.77,0.798-2.72,1.026c-0.034,0.009-0.068,0.009-0.104,0
	c-0.033-0.008-0.065-0.026-0.09-0.05c-0.069-0.088-0.148-0.17-0.233-0.244c-0.401-0.314-0.849-0.566-1.328-0.746
	c-0.642-0.252-1.33-0.363-2.021-0.321c-0.67,0.049-1.324,0.229-1.922,0.531c-0.596,0.308-1.128,0.731-1.555,1.242
	c-0.442,0.529-0.759,1.146-0.929,1.808c-0.146,0.628-0.162,1.278-0.05,1.912c0,0.112,0,0.126-0.093,0.112
	c-3.741-0.545-6.847-1.857-9.367-4.663c-0.107-0.119-0.164-0.119-0.258,0c-1.1,1.613-0.564,4.188,0.807,5.48
	c0.186,0.174,0.379,0.341,0.579,0.496c-0.629-0.045-1.245-0.213-1.806-0.496c-0.107-0.063-0.164,0-0.171,0.098
	c-0.021,0.174-0.021,0.35,0,0.523c0.111,0.823,0.442,1.603,0.962,2.262c0.519,0.655,1.208,1.166,1.995,1.479
	c0.193,0.08,0.394,0.141,0.599,0.18c-0.58,0.119-1.176,0.14-1.764,0.063c-0.128,0-0.178,0.044-0.128,0.161
	c0.305,0.777,0.807,1.465,1.459,1.998c0.652,0.534,1.433,0.896,2.268,1.052c0.165,0,0.336,0,0.507,0.068h-0.036
	c-0.414,0.622-1.863,1.091-2.542,1.322c-1.236,0.431-2.554,0.594-3.862,0.48c-0.208,0-0.25,0-0.308,0c-0.057,0,0,0.084,0.058,0.133
	c0.264,0.174,0.535,0.32,0.807,0.469c0.822,0.426,1.688,0.765,2.584,1.012c4.641,1.249,9.867,0.327,13.352-3.052
	c2.748-2.632,3.691-6.294,3.691-9.966c0-0.14,0.171-0.224,0.279-0.3c0.689-0.526,1.298-1.146,1.805-1.843
	c0.081-0.101,0.121-0.228,0.114-0.356C39.36,23.16,39.368,23.173,39.288,23.215z"/>
</svg>
